# xmcd
#
# Track frame offsets: 
#        150
#        16790
#        31325
#        47108
#        75772
#        90425
#        105520
#        126602
#        142874
#        157633
#        170629
#        184420
#        201901
#        219823
#        235650
#        251349
#        267152
#        292770
#        322843
#
# Disc length: 4697 seconds
#
# Revision: 0
# Processed by: cddbd v1.5.2PL0 Copyright (c) Steve Scherf et al.
# Submitted via: ExactAudioCopy v0.99pb5
#
DISCID=e7125713
DTITLE=Asha Bhosle - The Playback Queen - The Very Best Of [CD2)
DYEAR=2010
DGENRE=Soundtrack
TTITLE0=Radha ke pyare (Amar - 1954) 
TTITLE1=Pyar par bas to nahin hai (Sone Ki Chiddya - 1958)
TTITLE2=Sakhi ri sun bole papiha (Miss Mary - 1957) 
TTITLE3=Uden jab jab zulfen teri (Nayar Daur - 1957)
TTITLE4=Bekasi had se jab guzar jaye (Kalpana - 1960)
TTITLE5=Piya piya na lage mora jiya (Phagun - 1958)
TTITLE6=Tora man bada pappi (Ganga Jamuna - 1961) 
TTITLE7=Ab ke baras bhej bhaiyya (Bandini - 1963) 
TTITLE8=Phir thes lagi dil ko (Kashmir Ki Kali - 1964)
TTITLE9=Dekho bijli dole (Phir wohi dil laya hoon - 1963) 
TTITLE10=Tere Khayalon mein hum (Geet Gaya Pattharone - 196
TTITLE11=Sawan aaye ya na aaye (Dil Diya Dard Liya - 1966) 
TTITLE12=Aaj koi pyar se (Sawan ki Ghata - 1966) 
TTITLE13=Yehi wo jagah hai (Yeh raat phir na aayegi - 1966)
TTITLE14=jaane kya haal ho (Maharajah - 1970) 
TTITLE15=Chain se hum ko kabhi (Pran jaaye par vachan na ja
TTITLE16=Inn ankhon ki masti ke (Umrao jaan - 1981) 
TTITLE17=Mera kuch samaan (Ijazzat - 1987) 
TTITLE18=Jhoote nainan bole (Lekin - 1990)
EXTD=
EXTT0=
EXTT1=
EXTT2=
EXTT3=
EXTT4=
EXTT5=
EXTT6=
EXTT7=
EXTT8=
EXTT9=
EXTT10=
EXTT11=
EXTT12=
EXTT13=
EXTT14=
EXTT15=
EXTT16=
EXTT17=
EXTT18=
PLAYORDER=
